<!--?xml version="1.0" encoding="utf-8"?-->
<!-- Generator: Adobe Illustrator 18.1.1, SVG Export Plug-In . SVG Version: 6.00 Build 0)  -->

<svg version="1.1" id="_x32_" xmlns="http://www.w3.org/2000/svg" xmlns:xlink="http://www.w3.org/1999/xlink" x="0px" y="0px" viewBox="0 0 512 512" style="width: 256px; height: 256px; opacity: 1;" xml:space="preserve">
<style type="text/css">
	.st0{fill:#4B4B4B;}
</style>
<g transform="scale(1, -1) translate(0, -512)">
	<path class="st0" d="M510.026,457.524L268.794,39.708c-2.642-4.57-7.519-7.389-12.794-7.389c-5.276,0-10.152,2.818-12.794,7.389
		L1.974,457.524c-2.632,4.57-2.632,10.198,0,14.768c2.643,4.571,7.519,7.389,12.794,7.389h482.462
		c5.276,0,10.152-2.818,12.794-7.389C512.658,467.722,512.658,462.094,510.026,457.524z M40.357,450.134l31.373-54.337h61.689
		c1.669,0,3.301-0.677,4.478-1.864c1.178-1.177,1.854-2.809,1.854-4.468v-37.984h-12.664v31.651H79.044l93.813-162.483h114.608
		v-12.664H243.15v-33.765h-12.663v33.765h-50.323L256,76.635l183.046,317.048h-176.9v12.664h86.517v27.424h12.655v-27.424h85.043
		l25.282,43.787H40.357z" style="fill: rgb(75, 75, 75);"></path>
	<path class="st0" d="M307.575,356.275c8.965-6.369,17.8-15.834,24.623-24.049c3.403-4.116,6.268-7.899,8.344-10.847
		c1.029-1.492,1.864-2.753,2.504-3.82c0.324-0.537,0.593-1.029,0.852-1.566c0.14-0.278,0.26-0.556,0.399-0.964l0.214-0.742
		c0.064-0.324,0.138-0.714,0.148-1.316c-0.01-0.603-0.084-0.992-0.148-1.308c-0.139-0.612-0.278-0.955-0.408-1.26
		c-0.25-0.594-0.491-1.039-0.769-1.539c-1.048-1.808-2.717-4.264-5.007-7.352c-3.421-4.589-8.121-10.421-13.461-16.169
		c-5.34-5.748-11.265-11.403-17.29-15.677c-8.53-6.036-16.818-10.727-25.31-13.916c-8.493-3.19-17.18-4.849-26.265-4.84
		c-9.086-0.01-17.773,1.65-26.265,4.84c-8.493,3.189-16.78,7.88-25.31,13.916c-8.965,6.369-17.8,15.834-24.623,24.058
		c-3.402,4.107-6.268,7.889-8.334,10.838c-1.048,1.483-1.873,2.753-2.513,3.819c-0.325,0.537-0.594,1.029-0.853,1.566
		c-0.14,0.278-0.26,0.566-0.399,0.964l-0.214,0.751c-0.064,0.315-0.138,0.704-0.148,1.308c0.01,0.603,0.084,0.992,0.148,1.316
		c0.14,0.602,0.278,0.936,0.408,1.261c0.251,0.584,0.491,1.029,0.769,1.53c1.048,1.808,2.717,4.264,5.007,7.352
		c3.412,4.599,8.122,10.421,13.462,16.17c5.34,5.747,11.264,11.402,17.29,15.676c8.53,6.036,16.818,10.727,25.31,13.916
		c8.492,3.19,17.179,4.849,26.265,4.84c9.085,0.01,17.772-1.65,26.265-4.84C290.757,367.002,299.045,362.311,307.575,356.275z
		 M213.928,312.971c0-23.224,18.83-42.072,42.072-42.072c23.242,0,42.072,18.848,42.072,42.072c0,23.233-18.83,42.071-42.072,42.071
		C232.758,355.042,213.928,336.204,213.928,312.971z" style="fill: rgb(75, 75, 75);"></path>
	<path class="st0" d="M266.532,311.023c-2.206,0.408-4.468-0.37-5.942-2.058c-1.484-1.696-1.956-4.033-1.262-6.174l2.744-8.381
		c-1.918-0.621-3.949-0.964-6.072-0.964c-10.792,0-19.535,8.742-19.535,19.524c0,10.791,8.743,19.534,19.535,19.534
		c10.791,0,19.524-8.742,19.524-19.534c0-1.214-0.12-2.392-0.334-3.542L266.532,311.023z" style="fill: rgb(75, 75, 75);"></path>
</g>
</svg>
